PathFileType	4	(x/y/z)	S08_P20_T07
DataRate	CameraRate	NumFrames	NumMarkers	Units	OrigDataRate	OrigDataStartFrame	OrigNumFrames
240	240	4	51	mm	240	187	373
Frame#	Time	Sternum			R.Acromium			L.Acromium			Top.Head			R.ASIS			L.ASIS			R.PSIS			L.PSIS			R.Great.Tro			L.Great.Tro			R.Iliac.Crest			L.Iliac.Crest			V.Sacral			R.Thigh.Upper.Post			R.Thigh.Lower.Ant			R.Thigh.Lower.Post			R.Thigh.Upper.Ant			R.Knee.Lat			R.Knee.Med			R.Shank.Upper.Post			R.Shank.Lower.Ant			R.Shank.Lower.Post			R.Shank.Upper.Ant			R.Ankle.Lat			R.Ankle.Med			R.Heel.Upper			R.Heel.Med			R.Heel.Lat			R.Toe.Lat			R.Toe.Med			R.Toe.Tip			L.Thigh.Upper.Post			L.Thigh.Lower.Ant			L.Thigh.Lower.Post			L.Thigh.Upper.Ant			L.Knee.Lat			L.Knee.Med			L.Shank.Upper.Post			L.Shank.Lower.Ant			L.Shank.Lower.Post			L.Shank.Upper.Ant			L.Ankle.Lat			L.Ankle.Med			L.Heel.Upper			L.Heel.Med			L.Heel.Lat			L.Toe.Lat			L.Toe.Med			L.Toe.Tip			Cervical.Spine			Back			
		X1	Y1	Z1	X2	Y2	Z2	X3	Y3	Z3	X4	Y4	Z4	X5	Y5	Z5	X6	Y6	Z6	X7	Y7	Z7	X8	Y8	Z8	X9	Y9	Z9	X10	Y10	Z10	X11	Y11	Z11	X12	Y12	Z12	X13	Y13	Z13	X14	Y14	Z14	X15	Y15	Z15	X16	Y16	Z16	X17	Y17	Z17	X18	Y18	Z18	X19	Y19	Z19	X20	Y20	Z20	X21	Y21	Z21	X22	Y22	Z22	X23	Y23	Z23	X24	Y24	Z24	X25	Y25	Z25	X26	Y26	Z26	X27	Y27	Z27	X28	Y28	Z28	X29	Y29	Z29	X30	Y30	Z30	X31	Y31	Z31	X32	Y32	Z32	X33	Y33	Z33	X34	Y34	Z34	X35	Y35	Z35	X36	Y36	Z36	X37	Y37	Z37	X38	Y38	Z38	X39	Y39	Z39	X40	Y40	Z40	X41	Y41	Z41	X42	Y42	Z42	X43	Y43	Z43	X44	Y44	Z44	X45	Y45	Z45	X46	Y46	Z46	X47	Y47	Z47	X48	Y48	Z48	X49	Y49	Z49	X50	Y50	Z50	X51	Y51	Z51	

187	0.775	-330.28	1239.4	310.02	-434.18	1474.7	497.13	-479.57	1502.5	166.02	-437.1	1792.6	352.14	-357.73	1025.3	426.55	-365.85	1025.6	197.11	-561.04	1045.5	356.38	-561.23	1047	263.47	-425.05	915.28	499.74	-442.33	914.38	128.37	-451.21	1092.9	474.39	-461.78	1104.3	167.95	-577.06	1004.9	310.7	-463.47	714.32	479.71	-393.81	613.81	436.59	-462.48	625.78	457.58	-386.32	705.94	461.28	-440.88	518.28	428.43	-471.89	528.12	304.38	-529.85	341.32	430.98	-475.9	274.57	405.82	-539.26	265.59	419.5	-466.75	350.69	418.06	-558.43	101.02	372.51	-532.11	116.25	297.36	-609.33	67.536	325.65	-597	39.764	299.33	-604.71	43.99	360.65	-430.26	33.457	411.35	-406.94	44.858	292.24	-344.29	58.216	342.29	-355.75	711.8	139.57	-236.62	671.71	153.9	-299.19	640.92	154.04	-289.5	741.74	134.55	-252.07	562.6	167.95	-232.1	560.45	292.23	-357.03	417.45	168.81	-321.73	311.77	178.33	-382.9	349.27	182.34	-300.8	384.3	165.92	-422.67	181.43	187.88	-387.9	174.92	269.14	-476.24	171.15	242.84	-472.23	134.03	271.18	-482.9	144.4	208.98	-328.2	74.86	155.79	-294.72	69.634	265.66	-235.71	67.333	209.94	-521.73	1529	333.56	-564.93	1248	340.44
188	0.77917	-324.8	1239	310.16	-428.54	1474.4	497.21	-474.21	1502	166.06	-431.75	1792.2	352.07	-352.58	1024.7	426.72	-360.43	1025.3	197.24	-555.77	1045.2	356.21	-555.88	1046.7	263.26	-420.48	914.89	499.71	-436.69	914.29	128.16	-446.08	1092.4	474.37	-456.26	1104	167.94	-571.69	1004.5	310.4	-460.4	714.35	479.77	-391.48	613.36	436.65	-460.02	625.8	457.66	-383.29	705.43	461.42	-439.28	518.06	428.57	-469.97	528.08	304.4	-529.01	341.46	430.96	-475.26	274.57	405.94	-538.65	265.77	419.45	-465.85	350.63	418.15	-558.22	101.19	372.33	-531.85	116.33	297.23	-609.27	67.689	325.52	-596.81	39.798	299.28	-604.63	44.156	360.55	-430.23	33.468	411.4	-406.76	44.776	292.24	-344.13	57.93	342.37	-349.64	711.94	139.7	-230.46	672.06	154.3	-292.98	641.18	154.38	-283.43	741.98	134.74	-245.5	562.95	168.53	-226.03	561.01	292.53	-347.16	414.79	168.93	-309.06	310.09	178.53	-371.19	345.95	182.48	-290.06	383.15	166.13	-406.45	177.05	187.88	-371.29	171.32	269.14	-459.63	165.04	242.91	-454.45	128.04	271.24	-465.56	138.1	209.09	-308.89	73.213	155.62	-275.1	68.898	265.46	-216.13	68.316	209.61	-516.23	1528.7	333.66	-559.48	1247.7	340.62
189	0.78333	-319.32	1238.6	310.29	-422.9	1474.1	497.29	-468.83	1501.5	166.09	-426.39	1791.9	352	-347.42	1024.1	426.89	-355.01	1025	197.36	-550.49	1044.7	356.04	-550.52	1046.3	263.05	-415.92	914.48	499.67	-431.07	914.15	127.95	-440.92	1091.9	474.34	-450.73	1103.7	167.94	-566.32	1004	310.1	-457.32	714.37	479.8	-389.13	612.89	436.71	-457.53	625.81	457.7	-380.24	704.9	461.56	-437.63	517.83	428.69	-467.99	528.03	304.42	-528.15	341.62	430.91	-474.62	274.56	406.03	-538.02	265.97	419.38	-464.94	350.57	418.23	-558.01	101.38	372.13	-531.56	116.43	297.1	-609.19	67.847	325.37	-596.61	39.833	299.22	-604.55	44.329	360.43	-430.19	33.48	411.45	-406.59	44.7	292.24	-343.98	57.64	342.45	-343.65	711.98	139.87	-224.45	672.24	154.69	-286.93	641.32	154.74	-277.46	742.08	134.95	-239.08	563.17	169.1	-220.12	561.4	292.84	-337.3	412.05	169.03	-296.41	308.43	178.74	-359.45	342.59	182.6	-279.38	381.96	166.33	-390.1	172.74	187.86	-354.63	167.81	269.14	-442.86	159.02	242.95	-436.53	122.19	271.3	-448.05	131.91	209.19	-289.57	71.693	155.52	-255.53	68.334	265.33	-196.64	69.438	209.37	-510.72	1528.4	333.75	-554.04	1247.3	340.8
190	0.7875	-313.83	1238.1	310.42	-417.25	1473.7	497.38	-463.42	1500.9	166.11	-421.03	1791.4	351.92	-342.23	1023.4	427.04	-349.57	1024.6	197.46	-545.19	1044.3	355.87	-545.15	1045.9	262.86	-411.36	914.03	499.63	-425.45	913.94	127.76	-435.74	1091.4	474.31	-445.19	1103.3	167.92	-560.93	1003.6	309.83	-454.22	714.38	479.81	-386.74	612.41	436.77	-455.01	625.81	457.73	-377.18	704.36	461.71	-435.94	517.6	428.81	-465.95	527.98	304.42	-527.27	341.78	430.84	-473.96	274.54	406.08	-537.37	266.18	419.28	-464	350.51	418.31	-557.79	101.58	371.92	-531.24	116.53	296.95	-609.11	68.007	325.2	-596.39	39.87	299.14	-604.47	44.509	360.29	-430.17	33.494	411.49	-406.4	44.631	292.25	-343.81	57.343	342.53	-337.79	711.92	140.08	-218.59	672.25	155.08	-281.05	641.31	155.12	-271.6	742.04	135.18	-232.81	563.26	169.66	-214.37	561.61	293.16	-327.45	409.24	169.11	-283.79	306.79	178.94	-347.71	339.2	182.69	-268.74	380.74	166.53	-373.64	168.51	187.83	-337.93	164.42	269.16	-425.96	153.13	242.95	-418.5	116.51	271.36	-430.4	125.86	209.27	-270.24	70.318	155.48	-236.02	67.955	265.28	-177.24	70.711	209.24	-505.2	1527.9	333.84	-548.59	1246.9	340.96
